<svg width="116" height="28" viewBox="0 0 116 28" fill="none" xmlns="http://www.w3.org/2000/svg">
<path d="M4.382 2.85197V14.084C4.382 15.3146 4.70267 16.2593 5.344 16.918C5.98534 17.5593 6.88667 17.88 8.04801 17.88C9.22667 17.88 10.1367 17.5593 10.778 16.918C11.4193 16.2593 11.74 15.3146 11.74 14.084V2.85197H15.406V14.058C15.406 15.6006 15.068 16.9093 14.392 17.984C13.7333 19.0413 12.8407 19.8386 11.714 20.376C10.6047 20.9133 9.36534 21.182 7.996 21.182C6.644 21.182 5.41334 20.9133 4.304 20.376C3.212 19.8386 2.34534 19.0413 1.704 17.984C1.06267 16.9093 0.742004 15.6006 0.742004 14.058V2.85197H4.382Z" fill="white"/>
<path d="M22.5629 8.67597C23.0309 8.0173 23.6722 7.4713 24.4869 7.03797C25.3189 6.5873 26.2636 6.36197 27.3209 6.36197C28.5516 6.36197 29.6609 6.6653 30.6489 7.27197C31.6542 7.87863 32.4429 8.7453 33.0149 9.87197C33.6042 10.9813 33.8989 12.2726 33.8989 13.746C33.8989 15.2193 33.6042 16.528 33.0149 17.672C32.4429 18.7986 31.6542 19.674 30.6489 20.298C29.6609 20.922 28.5516 21.234 27.3209 21.234C26.2636 21.234 25.3276 21.0173 24.5129 20.584C23.7156 20.1506 23.0656 19.6046 22.5629 18.946V27.864H18.9229V6.59597H22.5629V8.67597ZM30.1809 13.746C30.1809 12.8793 29.9989 12.134 29.6349 11.51C29.2882 10.8686 28.8202 10.3833 28.2309 10.054C27.6589 9.72463 27.0349 9.55997 26.3589 9.55997C25.7002 9.55997 25.0762 9.7333 24.4869 10.08C23.9149 10.4093 23.4469 10.8946 23.0829 11.536C22.7362 12.1773 22.5629 12.9313 22.5629 13.798C22.5629 14.6646 22.7362 15.4186 23.0829 16.06C23.4469 16.7013 23.9149 17.1953 24.4869 17.542C25.0762 17.8713 25.7002 18.036 26.3589 18.036C27.0349 18.036 27.6589 17.8626 28.2309 17.516C28.8202 17.1693 29.2882 16.6753 29.6349 16.034C29.9989 15.3926 30.1809 14.63 30.1809 13.746Z" fill="white"/>
<path d="M40.782 9.58597V16.554C40.782 17.0393 40.8947 17.3946 41.12 17.62C41.3627 17.828 41.7613 17.932 42.316 17.932H44.006V21H41.718C38.65 21 37.116 19.5093 37.116 16.528V9.58597H35.4V6.59597H37.116V3.03397H40.782V6.59597H44.006V9.58597H40.782Z" fill="white"/>
<path d="M48.4701 4.87997C47.8287 4.87997 47.2914 4.68063 46.8581 4.28197C46.4421 3.86597 46.2341 3.35463 46.2341 2.74797C46.2341 2.1413 46.4421 1.63863 46.8581 1.23997C47.2914 0.823967 47.8287 0.615967 48.4701 0.615967C49.1114 0.615967 49.6401 0.823967 50.0561 1.23997C50.4894 1.63863 50.7061 2.1413 50.7061 2.74797C50.7061 3.35463 50.4894 3.86597 50.0561 4.28197C49.6401 4.68063 49.1114 4.87997 48.4701 4.87997ZM50.2641 6.59597V21H46.6241V6.59597H50.2641Z" fill="white"/>
<path d="M71.7484 6.38797C73.5164 6.38797 74.9377 6.93397 76.0124 8.02597C77.1044 9.10063 77.6504 10.6086 77.6504 12.55V21H74.0104V13.044C74.0104 11.9173 73.7244 11.0593 73.1524 10.47C72.5804 9.8633 71.8004 9.55997 70.8124 9.55997C69.8244 9.55997 69.0357 9.8633 68.4464 10.47C67.8744 11.0593 67.5884 11.9173 67.5884 13.044V21H63.9484V13.044C63.9484 11.9173 63.6624 11.0593 63.0904 10.47C62.5184 9.8633 61.7384 9.55997 60.7504 9.55997C59.7451 9.55997 58.9477 9.8633 58.3584 10.47C57.7864 11.0593 57.5004 11.9173 57.5004 13.044V21H53.8604V6.59597H57.5004V8.33797C57.9684 7.7313 58.5664 7.25463 59.2944 6.90797C60.0397 6.5613 60.8544 6.38797 61.7384 6.38797C62.8651 6.38797 63.8704 6.63063 64.7544 7.11597C65.6384 7.58397 66.3231 8.25997 66.8084 9.14397C67.2764 8.31197 67.9524 7.64463 68.8364 7.14197C69.7377 6.6393 70.7084 6.38797 71.7484 6.38797Z" fill="white"/>
<path d="M82.9506 4.87997C82.3092 4.87997 81.7719 4.68063 81.3386 4.28197C80.9226 3.86597 80.7146 3.35463 80.7146 2.74797C80.7146 2.1413 80.9226 1.63863 81.3386 1.23997C81.7719 0.823967 82.3092 0.615967 82.9506 0.615967C83.5919 0.615967 84.1206 0.823967 84.5366 1.23997C84.9699 1.63863 85.1866 2.1413 85.1866 2.74797C85.1866 3.35463 84.9699 3.86597 84.5366 4.28197C84.1206 4.68063 83.5919 4.87997 82.9506 4.87997ZM84.7446 6.59597V21H81.1046V6.59597H84.7446Z" fill="white"/>
<path d="M93.8529 21.234C92.6742 21.234 91.6169 21.026 90.6809 20.61C89.7449 20.1766 88.9995 19.596 88.4449 18.868C87.9075 18.14 87.6129 17.334 87.5609 16.45H91.2269C91.2962 17.0046 91.5649 17.464 92.0329 17.828C92.5182 18.192 93.1162 18.374 93.8269 18.374C94.5202 18.374 95.0575 18.2353 95.4389 17.958C95.8375 17.6806 96.0369 17.3253 96.0369 16.892C96.0369 16.424 95.7942 16.0773 95.3089 15.852C94.8409 15.6093 94.0869 15.3493 93.0469 15.072C91.9722 14.812 91.0882 14.5433 90.3949 14.266C89.7189 13.9886 89.1295 13.564 88.6269 12.992C88.1415 12.42 87.8989 11.6486 87.8989 10.678C87.8989 9.88063 88.1242 9.15263 88.5749 8.49397C89.0429 7.8353 89.7015 7.3153 90.5509 6.93397C91.4175 6.55263 92.4315 6.36197 93.5929 6.36197C95.3089 6.36197 96.6782 6.7953 97.7009 7.66197C98.7235 8.5113 99.2869 9.66397 99.3909 11.12H95.9069C95.8549 10.548 95.6122 10.0973 95.1789 9.76797C94.7629 9.4213 94.1995 9.24797 93.4889 9.24797C92.8302 9.24797 92.3189 9.3693 91.9549 9.61197C91.6082 9.85463 91.4349 10.1926 91.4349 10.626C91.4349 11.1113 91.6775 11.484 92.1629 11.744C92.6482 11.9866 93.4022 12.238 94.4249 12.498C95.4649 12.758 96.3229 13.0266 96.9989 13.304C97.6749 13.5813 98.2555 14.0146 98.7409 14.604C99.2436 15.176 99.5035 15.9386 99.5209 16.892C99.5209 17.724 99.2869 18.4693 98.8189 19.128C98.3682 19.7866 97.7095 20.3066 96.8429 20.688C95.9935 21.052 94.9969 21.234 93.8529 21.234Z" fill="white"/>
<path d="M115.899 13.486C115.899 14.006 115.864 14.474 115.795 14.89H105.265C105.352 15.93 105.716 16.7446 106.357 17.334C106.998 17.9233 107.787 18.218 108.723 18.218C110.075 18.218 111.037 17.6373 111.609 16.476H115.535C115.119 17.8626 114.322 19.0066 113.143 19.908C111.964 20.792 110.517 21.234 108.801 21.234C107.414 21.234 106.166 20.9306 105.057 20.324C103.965 19.7 103.107 18.8246 102.483 17.698C101.876 16.5713 101.573 15.2713 101.573 13.798C101.573 12.3073 101.876 10.9986 102.483 9.87197C103.09 8.7453 103.939 7.87863 105.031 7.27197C106.123 6.6653 107.38 6.36197 108.801 6.36197C110.17 6.36197 111.392 6.65663 112.467 7.24597C113.559 7.8353 114.4 8.67597 114.989 9.76797C115.596 10.8426 115.899 12.082 115.899 13.486ZM112.129 12.446C112.112 11.51 111.774 10.7646 111.115 10.21C110.456 9.63797 109.65 9.35197 108.697 9.35197C107.796 9.35197 107.033 9.6293 106.409 10.184C105.802 10.7213 105.43 11.4753 105.291 12.446H112.129Z" fill="white"/>
</svg>
